<?xml version="1.0" encoding="UTF-8"?>
<svg xmlns="http://www.w3.org/2000/svg" xmlns:xlink="http://www.w3.org/1999/xlink" width="100px" height="52.9px" viewBox="0 0 100 52" version="1.1">
<g id="surface1">
<path style=" stroke:none;fill-rule:nonzero;fill:rgb(0.392157%,0.392157%,0.392157%);fill-opacity:1;" d="M 59 19.761719 C 62.699219 19.609375 62.699219 19.609375 63.71875 19.917969 C 64.078125 20.164062 64.332031 20.417969 64.601562 20.695312 C 64.945312 20.960938 65.3125 21.21875 65.675781 21.476562 C 65.847656 21.601562 66.019531 21.730469 66.191406 21.855469 C 66.546875 22.128906 66.546875 22.128906 66.800781 22.257812 C 66.945312 22.144531 67.089844 22.035156 67.238281 21.921875 C 67.433594 21.773438 67.628906 21.625 67.824219 21.476562 C 67.917969 21.402344 68.015625 21.332031 68.113281 21.257812 C 68.308594 21.109375 68.503906 20.960938 68.703125 20.816406 C 69.007812 20.59375 69.007812 20.59375 69.269531 20.351562 C 69.9375 19.796875 69.9375 19.796875 70.667969 19.695312 C 71.214844 19.679688 71.730469 19.6875 72.273438 19.707031 C 72.460938 19.710938 72.644531 19.714844 72.835938 19.71875 C 73.292969 19.730469 73.746094 19.742188 74.199219 19.761719 C 73.871094 20.296875 73.238281 20.710938 72.601562 21.15625 C 72.484375 21.238281 72.371094 21.320312 72.25 21.40625 C 71.699219 21.800781 71.140625 22.195312 70.578125 22.582031 C 70.484375 22.648438 70.390625 22.714844 70.292969 22.78125 C 70.117188 22.90625 69.941406 23.027344 69.761719 23.148438 C 69.308594 23.449219 69.308594 23.449219 69.25 23.8125 C 69.40625 24.035156 69.589844 24.191406 69.855469 24.382812 C 69.945312 24.449219 70.035156 24.511719 70.128906 24.578125 C 70.222656 24.644531 70.316406 24.710938 70.414062 24.777344 C 70.554688 24.878906 70.554688 24.878906 70.699219 24.984375 C 70.929688 25.148438 71.164062 25.316406 71.398438 25.480469 C 72.9375 25.226562 74.414062 24.914062 75.898438 24.589844 C 76.15625 24.535156 76.414062 24.480469 76.667969 24.425781 C 77.910156 24.15625 79.144531 23.886719 80.371094 23.605469 C 82.714844 23.078125 84.8125 22.625 87.398438 22.878906 C 88.695312 23.15625 89.550781 23.597656 90.222656 24.234375 C 90.730469 24.863281 90.78125 25.460938 90.375 26.109375 C 89.808594 26.808594 88.960938 27.253906 87.652344 27.582031 C 86.863281 27.726562 86.105469 27.714844 85.273438 27.703125 C 85.113281 27.703125 84.953125 27.703125 84.789062 27.703125 C 83.554688 27.695312 82.359375 27.605469 81.140625 27.511719 C 79.894531 27.417969 78.640625 27.355469 77.386719 27.292969 C 76.882812 27.269531 76.375 27.242188 75.867188 27.214844 C 75.648438 27.203125 75.429688 27.191406 75.203125 27.179688 C 74.660156 27.148438 74.132812 27.101562 73.601562 27.039062 C 73.671875 27.089844 73.746094 27.140625 73.820312 27.191406 C 73.957031 27.289062 73.957031 27.289062 74.101562 27.390625 C 74.191406 27.457031 74.285156 27.519531 74.382812 27.589844 C 74.601562 27.769531 74.601562 27.769531 74.601562 27.976562 C 71.550781 28.121094 71.550781 28.121094 70.199219 27.976562 C 69.574219 27.703125 69.296875 27.460938 68.910156 27.089844 C 68.648438 26.824219 68.648438 26.824219 68.214844 26.734375 C 67.171875 26.703125 66.191406 26.925781 65.226562 27.113281 C 65.027344 27.148438 65.027344 27.148438 64.828125 27.1875 C 64.191406 27.324219 63.851562 27.402344 63.527344 27.722656 C 63.199219 27.976562 63.199219 27.976562 62.710938 28.035156 C 62.425781 28.03125 62.425781 28.03125 62.136719 28.027344 C 61.828125 28.023438 61.828125 28.023438 61.511719 28.023438 C 61.296875 28.015625 61.082031 28.011719 60.863281 28.007812 C 60.644531 28.007812 60.429688 28.003906 60.207031 28 C 59.671875 27.996094 59.136719 27.988281 58.601562 27.976562 C 59.394531 27.347656 60.214844 26.730469 61.0625 26.125 C 61.175781 26.042969 61.285156 25.960938 61.402344 25.878906 C 62.320312 25.222656 63.253906 24.566406 64.199219 23.921875 C 63.945312 23.640625 63.664062 23.390625 63.320312 23.140625 C 63.226562 23.070312 63.128906 23 63.03125 22.929688 C 62.878906 22.816406 62.878906 22.816406 62.726562 22.703125 C 62.621094 22.628906 62.515625 22.550781 62.40625 22.472656 C 61.84375 22.058594 61.277344 21.644531 60.707031 21.234375 C 60.597656 21.152344 60.488281 21.074219 60.375 20.992188 C 60.160156 20.835938 59.945312 20.679688 59.730469 20.523438 C 59 19.992188 59 19.992188 59 19.761719 Z M 66.601562 25.273438 C 66.355469 25.421875 66.117188 25.574219 65.886719 25.726562 C 65.757812 25.8125 65.632812 25.894531 65.5 25.984375 C 65.160156 26.191406 65.160156 26.191406 65.199219 26.414062 C 65.554688 26.441406 65.90625 26.464844 66.261719 26.488281 C 66.558594 26.507812 66.558594 26.507812 66.859375 26.527344 C 67.410156 26.546875 67.410156 26.546875 67.769531 26.367188 C 67.882812 26.289062 67.882812 26.289062 68 26.207031 C 67.804688 26.050781 67.609375 25.894531 67.414062 25.738281 C 67.304688 25.652344 67.195312 25.566406 67.082031 25.476562 C 66.988281 25.410156 66.894531 25.339844 66.800781 25.273438 C 66.734375 25.273438 66.667969 25.273438 66.601562 25.273438 Z M 66.601562 25.273438 "/>
<path style=" stroke:none;fill-rule:nonzero;fill:rgb(0%,0%,0%);fill-opacity:1;" d="M 12.800781 19.761719 C 14.207031 19.753906 15.613281 19.746094 17.0625 19.742188 C 17.722656 19.734375 17.722656 19.734375 18.394531 19.730469 C 21.4375 19.71875 24.320312 19.84375 26.664062 20.976562 C 28.503906 21.996094 28.710938 23.097656 28.667969 24.433594 C 28.585938 25.382812 27.867188 26.171875 26.601562 26.859375 C 24.648438 27.742188 22.488281 28.027344 19.949219 28.007812 C 19.765625 28.007812 19.582031 28.003906 19.394531 28.003906 C 18.722656 28.003906 18.046875 28 17.375 27.996094 C 15.867188 27.988281 14.355469 27.984375 12.800781 27.976562 C 12.800781 25.265625 12.800781 22.554688 12.800781 19.761719 Z M 16.601562 21.425781 C 16.601562 23.070312 16.601562 24.71875 16.601562 26.414062 C 20.394531 26.511719 20.394531 26.511719 23.601562 25.6875 C 24.75 24.925781 24.921875 24.25 24.800781 23.296875 C 24.59375 22.664062 23.996094 22.308594 23.085938 21.894531 C 20.898438 21.171875 19.398438 21.425781 16.601562 21.425781 Z M 16.601562 21.425781 "/>
<path style=" stroke:none;fill-rule:nonzero;fill:rgb(0%,0%,0%);fill-opacity:1;" d="M 45.199219 19.238281 C 46.386719 19.238281 47.574219 19.238281 48.800781 19.238281 C 48.867188 20.167969 48.933594 21.09375 49 22.046875 C 49.527344 21.910156 50.054688 21.773438 50.601562 21.632812 C 52.160156 21.386719 53.726562 21.515625 55.199219 21.839844 C 56.667969 22.296875 57.644531 22.871094 58.246094 23.703125 C 58.730469 24.710938 58.625 25.824219 57.601562 26.726562 C 56.773438 27.4375 55.503906 27.832031 54 28.078125 C 52.109375 28.25 50.410156 28.125 48.800781 27.558594 C 48.734375 27.699219 48.667969 27.835938 48.601562 27.976562 C 47.476562 27.976562 46.355469 27.976562 45.199219 27.976562 C 45.199219 25.09375 45.199219 22.210938 45.199219 19.238281 Z M 49.351562 23.765625 C 48.667969 24.269531 48.703125 24.78125 48.800781 25.375 C 49.132812 25.867188 49.570312 26.125 50.398438 26.414062 C 51.144531 26.546875 51.828125 26.578125 52.601562 26.519531 C 53.265625 26.34375 53.265625 26.34375 53.800781 26.105469 C 53.914062 26.058594 54.03125 26.015625 54.148438 25.96875 C 54.84375 25.480469 54.871094 24.925781 54.707031 24.351562 C 54.488281 23.898438 54.03125 23.609375 53.375 23.308594 C 51.828125 22.996094 50.457031 23.125 49.351562 23.765625 Z M 49.351562 23.765625 "/>
<path style=" stroke:none;fill-rule:nonzero;fill:rgb(75.294119%,23.529412%,66.666669%);fill-opacity:1;" d="M 88.050781 23.015625 C 89.234375 23.394531 90.09375 23.957031 90.511719 24.648438 C 90.792969 25.320312 90.621094 25.910156 90 26.519531 C 89.28125 27.09375 88.441406 27.433594 87.199219 27.664062 C 86.554688 27.714844 85.925781 27.714844 85.273438 27.703125 C 85.113281 27.703125 84.953125 27.703125 84.789062 27.703125 C 83.554688 27.695312 82.359375 27.605469 81.136719 27.511719 C 79.898438 27.417969 78.65625 27.355469 77.414062 27.292969 C 76.679688 27.253906 75.945312 27.21875 75.210938 27.175781 C 74.855469 27.15625 74.5 27.140625 74.144531 27.132812 C 73.457031 27.105469 73.214844 27.046875 72.707031 26.792969 C 72.503906 26.640625 72.503906 26.640625 72.300781 26.488281 C 72.160156 26.386719 72.023438 26.285156 71.882812 26.183594 C 71.601562 25.894531 71.601562 25.894531 71.625 25.6875 C 71.875 25.394531 72.167969 25.355469 72.730469 25.230469 C 72.933594 25.1875 73.132812 25.144531 73.335938 25.097656 C 73.664062 25.03125 73.664062 25.03125 74 24.960938 C 74.222656 24.914062 74.449219 24.863281 74.679688 24.816406 C 75.679688 24.605469 76.683594 24.398438 77.6875 24.191406 C 77.953125 24.136719 78.222656 24.082031 78.488281 24.027344 C 78.621094 24 78.75 23.972656 78.886719 23.945312 C 79.652344 23.789062 80.410156 23.621094 81.160156 23.445312 C 83.355469 22.941406 85.695312 22.519531 88.050781 23.015625 Z M 88.050781 23.015625 "/>
<path style=" stroke:none;fill-rule:nonzero;fill:rgb(0%,0%,0%);fill-opacity:1;" d="M 41.199219 22.359375 C 42.1875 22.875 42.679688 23.425781 43 24.128906 C 43 24.539062 43 24.953125 43 25.375 C 40.03125 25.410156 37.058594 25.445312 34 25.480469 C 34.785156 26.140625 34.785156 26.140625 36 26.414062 C 37.191406 26.488281 38.234375 26.5 39.300781 26.195312 C 39.648438 26.097656 39.648438 26.097656 40 26 C 40.660156 26.113281 41.074219 26.328125 41.550781 26.585938 C 41.671875 26.652344 41.796875 26.714844 41.921875 26.785156 C 42.058594 26.859375 42.058594 26.859375 42.199219 26.9375 C 41.925781 27.277344 41.660156 27.433594 41.050781 27.625 C 40.917969 27.667969 40.789062 27.710938 40.652344 27.753906 C 39.480469 28.0625 38.441406 28.121094 37.148438 28.117188 C 36.980469 28.117188 36.8125 28.117188 36.636719 28.117188 C 35.355469 28.105469 34.320312 28.003906 33.199219 27.664062 C 32.984375 27.601562 32.769531 27.539062 32.550781 27.476562 C 31.402344 27 30.472656 26.457031 30.199219 25.6875 C 30.046875 24.753906 30.027344 23.910156 31 23.089844 C 31.101562 22.980469 31.207031 22.875 31.3125 22.761719 C 33.871094 21.191406 38.179688 21.15625 41.199219 22.359375 Z M 34.023438 23.777344 C 33.769531 24.011719 33.769531 24.011719 33.800781 24.230469 C 35.648438 24.230469 37.496094 24.230469 39.398438 24.230469 C 39.183594 23.671875 39.054688 23.546875 38.246094 23.210938 C 36.695312 22.785156 35.011719 23.058594 34.023438 23.777344 Z M 34.023438 23.777344 "/>
<path style=" stroke:none;fill-rule:nonzero;fill:rgb(75.294119%,32.549021%,55.29412%);fill-opacity:1;" d="M 85.875 22.808594 C 86.078125 22.808594 86.078125 22.808594 86.289062 22.808594 C 87.375 22.839844 88.1875 23.003906 89.003906 23.375 C 90.070312 24.015625 90.71875 24.613281 90.660156 25.476562 C 90.554688 25.851562 90.285156 26.171875 90 26.519531 C 89.933594 26.519531 89.867188 26.519531 89.800781 26.519531 C 89.800781 26.3125 89.800781 26.109375 89.800781 25.894531 C 89.933594 25.894531 90.0625 25.894531 90.199219 25.894531 C 90.167969 25.765625 90.132812 25.632812 90.101562 25.5 C 90.035156 25.246094 90 25.011719 90 24.753906 C 89.867188 24.753906 89.734375 24.753906 89.601562 24.753906 C 89.664062 24.546875 89.730469 24.339844 89.800781 24.128906 C 89.273438 24.09375 88.742188 24.058594 88.199219 24.023438 C 88 23.710938 88 23.710938 88.1875 23.484375 C 88.257812 23.421875 88.328125 23.359375 88.398438 23.296875 C 88.175781 23.296875 87.953125 23.300781 87.726562 23.300781 C 87 23.296875 87 23.296875 86.601562 23.191406 C 86.601562 23.125 86.601562 23.054688 86.601562 22.984375 C 86.402344 23.019531 86.203125 23.050781 86 23.089844 C 85.460938 23.042969 85.460938 23.042969 85 22.984375 C 84.933594 23.085938 84.867188 23.191406 84.800781 23.296875 C 84.601562 23.261719 84.402344 23.226562 84.199219 23.191406 C 83.78125 23.191406 83.78125 23.191406 83.398438 23.296875 C 83.257812 23.46875 83.125 23.640625 83 23.816406 C 82.800781 23.851562 82.605469 23.882812 82.398438 23.921875 C 82.269531 23.988281 82.136719 24.058594 82 24.128906 C 81.886719 24.089844 81.777344 24.054688 81.664062 24.015625 C 81.09375 23.898438 80.78125 23.941406 80.199219 24.023438 C 80.132812 23.921875 80.066406 23.816406 80 23.710938 C 83.75 22.796875 83.75 22.796875 85.875 22.808594 Z M 85.875 22.808594 "/>
<path style=" stroke:none;fill-rule:nonzero;fill:rgb(55.686277%,23.921569%,63.137257%);fill-opacity:1;" d="M 66.636719 26.390625 C 66.804688 26.390625 66.976562 26.394531 67.148438 26.394531 C 67.566406 26.402344 67.984375 26.40625 68.398438 26.414062 C 68.398438 26.519531 68.398438 26.621094 68.398438 26.726562 C 68.265625 26.738281 68.132812 26.75 67.996094 26.757812 C 66.59375 26.878906 65.320312 27.078125 64 27.351562 C 64.25 26.414062 64.984375 26.355469 66.636719 26.390625 Z M 66.636719 26.390625 "/>
<path style=" stroke:none;fill-rule:nonzero;fill:rgb(74.509805%,20.784314%,76.078433%);fill-opacity:1;" d="M 81.601562 26.832031 C 81.535156 26.933594 81.46875 27.039062 81.398438 27.144531 C 81.136719 27.183594 80.867188 27.21875 80.601562 27.246094 C 80.535156 27.316406 80.46875 27.386719 80.398438 27.457031 C 80.269531 27.421875 80.136719 27.386719 80 27.351562 C 79.558594 27.3125 79.117188 27.273438 78.675781 27.242188 C 78.4375 27.222656 78.199219 27.203125 77.953125 27.1875 C 77.679688 27.164062 77.679688 27.164062 77.398438 27.144531 C 77.464844 27.042969 77.53125 26.9375 77.601562 26.832031 C 77.996094 26.882812 77.996094 26.882812 78.398438 26.9375 C 78.398438 27.003906 78.398438 27.074219 78.398438 27.144531 C 79.394531 27.027344 79.394531 27.027344 80.199219 26.726562 C 80.890625 26.589844 80.941406 26.605469 81.601562 26.832031 Z M 81.601562 26.832031 "/>
<path style=" stroke:none;fill-rule:nonzero;fill:rgb(76.862746%,27.058825%,58.431375%);fill-opacity:1;" d="M 83.199219 23.296875 C 83.132812 23.46875 83.066406 23.640625 83 23.816406 C 82.800781 23.851562 82.605469 23.882812 82.398438 23.921875 C 82.269531 23.988281 82.136719 24.058594 82 24.128906 C 81.886719 24.089844 81.777344 24.054688 81.664062 24.015625 C 81.09375 23.898438 80.78125 23.941406 80.199219 24.023438 C 80.132812 23.921875 80.066406 23.816406 80 23.710938 C 81.058594 23.492188 82.042969 23.296875 83.199219 23.296875 Z M 83.199219 23.296875 "/>
<path style=" stroke:none;fill-rule:nonzero;fill:rgb(73.725492%,22.745098%,73.725492%);fill-opacity:1;" d="M 73.550781 25.257812 C 73.710938 25.261719 73.871094 25.261719 74.035156 25.265625 C 74.15625 25.265625 74.277344 25.269531 74.398438 25.273438 C 74.398438 25.480469 74.398438 25.480469 74.199219 25.65625 C 73.542969 25.878906 72.957031 25.757812 72.199219 25.6875 C 72.265625 25.894531 72.332031 26.101562 72.398438 26.3125 C 71.988281 26.128906 71.988281 26.128906 71.601562 25.894531 C 71.601562 25.675781 71.601562 25.675781 71.800781 25.480469 C 72.398438 25.285156 72.847656 25.25 73.550781 25.257812 Z M 73.550781 25.257812 "/>
<path style=" stroke:none;fill-rule:nonzero;fill:rgb(62.7451%,21.960784%,71.764708%);fill-opacity:1;" d="M 66 26.726562 C 66.445312 26.691406 66.445312 26.691406 66.800781 26.625 C 66.800781 26.691406 66.800781 26.761719 66.800781 26.832031 C 65.875 27.003906 64.953125 27.175781 64 27.351562 C 64.199219 26.832031 64.199219 26.832031 64.550781 26.6875 C 65.101562 26.609375 65.445312 26.664062 66 26.726562 Z M 66 26.726562 "/>
<path style=" stroke:none;fill-rule:nonzero;fill:rgb(71.372551%,35.294119%,60.784316%);fill-opacity:1;" d="M 90 24.230469 C 90.617188 24.550781 90.59375 24.796875 90.648438 25.246094 C 90.644531 25.722656 90.355469 26.085938 90 26.519531 C 89.933594 26.519531 89.867188 26.519531 89.800781 26.519531 C 89.800781 26.3125 89.800781 26.109375 89.800781 25.894531 C 89.933594 25.894531 90.0625 25.894531 90.199219 25.894531 C 90.1875 25.835938 90.171875 25.777344 90.15625 25.71875 C 90.039062 25.21875 89.980469 24.734375 90 24.230469 Z M 90 24.230469 "/>
<path style=" stroke:none;fill-rule:nonzero;fill:rgb(73.333335%,18.82353%,76.47059%);fill-opacity:1;" d="M 72.199219 25.6875 C 72.53125 25.6875 72.859375 25.6875 73.199219 25.6875 C 73.265625 25.859375 73.332031 26.03125 73.398438 26.207031 C 73.269531 26.207031 73.136719 26.207031 73 26.207031 C 73 26.277344 73 26.34375 73 26.414062 C 73.132812 26.449219 73.265625 26.484375 73.398438 26.519531 C 73.136719 26.554688 72.871094 26.589844 72.601562 26.625 C 72.46875 26.316406 72.335938 26.007812 72.199219 25.6875 Z M 72.199219 25.6875 "/>
<path style=" stroke:none;fill-rule:nonzero;fill:rgb(75.686276%,30.19608%,60.784316%);fill-opacity:1;" d="M 81.398438 23.398438 C 81.597656 23.503906 81.796875 23.605469 82 23.710938 C 81.449219 24 80.957031 23.980469 80.199219 24.023438 C 80.132812 23.921875 80.066406 23.816406 80 23.710938 C 80.460938 23.609375 80.925781 23.507812 81.398438 23.398438 Z M 81.398438 23.398438 "/>
<path style=" stroke:none;fill-rule:nonzero;fill:rgb(69.01961%,25.882354%,70.19608%);fill-opacity:1;" d="M 82.800781 27.144531 C 82.933594 27.28125 83.0625 27.417969 83.199219 27.558594 C 82.34375 27.527344 81.484375 27.492188 80.601562 27.457031 C 80.601562 27.386719 80.601562 27.320312 80.601562 27.246094 C 81.324219 27.28125 82.050781 27.316406 82.800781 27.351562 C 82.800781 27.285156 82.800781 27.214844 82.800781 27.144531 Z M 82.800781 27.144531 "/>
<path style=" stroke:none;fill-rule:nonzero;fill:rgb(64.313728%,26.666668%,65.490198%);fill-opacity:1;" d="M 73.199219 25.375 C 73.066406 25.414062 72.9375 25.453125 72.800781 25.492188 C 72.328125 25.679688 72.328125 25.679688 72.351562 26.019531 C 72.367188 26.117188 72.382812 26.210938 72.398438 26.3125 C 71.988281 26.128906 71.988281 26.128906 71.601562 25.894531 C 71.601562 25.675781 71.601562 25.675781 71.800781 25.480469 C 72.382812 25.269531 72.503906 25.253906 73.199219 25.375 Z M 73.199219 25.375 "/>
<path style=" stroke:none;fill-rule:nonzero;fill:rgb(7.058824%,0.392157%,10.588235%);fill-opacity:1;" d="M 64.601562 26.3125 C 64.796875 26.347656 64.996094 26.378906 65.199219 26.414062 C 65.066406 26.414062 64.9375 26.414062 64.800781 26.414062 C 64.496094 26.722656 64.238281 27.03125 64 27.351562 C 63.761719 27.175781 63.761719 27.175781 63.601562 26.9375 C 63.867188 26.640625 64.027344 26.460938 64.601562 26.3125 Z M 64.601562 26.3125 "/>
<path style=" stroke:none;fill-rule:nonzero;fill:rgb(71.764708%,33.333334%,68.235296%);fill-opacity:1;" d="M 75 24.753906 C 75.066406 24.820312 75.132812 24.890625 75.199219 24.960938 C 75.066406 24.960938 74.9375 24.960938 74.800781 24.960938 C 74.800781 25.027344 74.800781 25.097656 74.800781 25.167969 C 74.601562 25.167969 74.402344 25.167969 74.199219 25.167969 C 74.199219 25.238281 74.199219 25.304688 74.199219 25.375 C 73.871094 25.339844 73.539062 25.308594 73.199219 25.273438 C 73.769531 25.03125 74.308594 24.882812 75 24.753906 Z M 75 24.753906 "/>
<path style=" stroke:none;fill-rule:nonzero;fill:rgb(74.117649%,22.745098%,78.039217%);fill-opacity:1;" d="M 75.800781 26.726562 C 76.027344 26.757812 76.027344 26.757812 76.261719 26.785156 C 76.816406 26.855469 76.816406 26.855469 77.398438 26.726562 C 77.335938 26.867188 77.269531 27.003906 77.199219 27.144531 C 76.804688 27.144531 76.40625 27.144531 76 27.144531 C 75.933594 27.007812 75.867188 26.871094 75.800781 26.726562 Z M 75.800781 26.726562 "/>
<path style=" stroke:none;fill-rule:nonzero;fill:rgb(71.764708%,36.470589%,53.725493%);fill-opacity:1;" d="M 88 23.089844 C 88.757812 23.242188 89.121094 23.480469 89.601562 23.816406 C 89.269531 23.78125 88.941406 23.746094 88.601562 23.710938 C 88.535156 23.574219 88.46875 23.4375 88.398438 23.296875 C 88.269531 23.296875 88.136719 23.296875 88 23.296875 C 88 23.226562 88 23.160156 88 23.089844 Z M 88 23.089844 "/>
</g>
</svg>
