<?xml version="1.0" encoding="UTF-8"?>
<svg version="1.1" xmlns="http://www.w3.org/2000/svg" width="100px" height="52.9px" viewBox="0 0 500 500">
<path d="M0 0 C18.4973641 -1.45423438 18.4973641 -1.45423438 23.6015625 1.51171875 ... 0 Z" fill="#010101" transform="translate(295,190)"/>
<path d="M0 0 C7.033125 -0.061875 14.06625 -0.12375 21.3125 -0.1875 ... 19 16 Z" fill="#000000" transform="translate(64,190)"/>
<path d="M0 0 C5.94 0 11.88 0 18 0 C18.33 8.91 18.66 17.82 19 27 ... 20.75 43.5 Z" fill="#000000" transform="translate(226,185)"/>
<path d="M0 0 C5.92592435 3.63120471 10.23030106 9.04100399 12.3203125 15.6875 ... 0 0 Z" fill="#C03CAA" transform="translate(440.24609375,221.3125)"/>
<path d="M0 0 C4.94604803 4.93565718 7.40310678 10.25756195 9 17 ... -35.875 13.625 Z" fill="#000000" transform="translate(206,215)"/>
<path d="M0 0 C1.02275024 0.00870117 1.02275024 0.00870117 2.06616211 0.01757812 ... 0 0 Z" fill="#C0538D" transform="translate(429.375,219.3125)"/>
<path d="M0 0 C0.84498047 0.01804688 1.68996094 0.03609375 2.56054688 0.0546875 ... 0 0 Z" fill="#8E3DA1" transform="translate(333.1875,253.75)"/>
<path d="M0 0 C-0.33 0.99 -0.66 1.98 -1 3 C-2.32303717 3.3721042 -3.65737935 3.70630173 -5 4 ... 0 0 Z" fill="#BE35C2" transform="translate(408,258)"/>
<path d="M0 0 C-0.33 1.65 -0.66 3.3 -1 5 C-1.99 5.33 -2.98 5.66 -4 6 ... 0 0 Z" fill="#C44595" transform="translate(416,224)"/>
<path d="M0 0 C0.79921875 0.01804688 1.5984375 0.03609375 2.421875 0.0546875 ... 0 0 Z" fill="#BC3ABC" transform="translate(367.75,242.875)"/>
<path d="M0 0 C2.23167185 -0.36856864 2.23167185 -0.36856864 4 -1 ... 0 0 Z" fill="#A038B7" transform="translate(330,257)"/>
<path d="M0 0 C3.08145313 3.08145313 2.9614024 5.42103594 3.25 9.75 ... 0 0 Z" fill="#B65A9B" transform="translate(450,233)"/>
<path d="M0 0 C1.65 0 3.3 0 5 0 C5.33 1.65 5.66 3.3 6 5 ... 0 0 Z" fill="#BB30C3" transform="translate(361,247)"/>
<path d="M0 0 C0.99 0.99 1.98 1.98 3 3 ... 0 0 Z" fill="#C14D9B" transform="translate(407,225)"/>
<path d="M0 0 C0.66 1.32 1.32 2.64 2 4 ... 0 0 Z" fill="#B042B3" transform="translate(414,261)"/>
<path d="M0 0 C-0.66 0.37125 -1.32 0.7425 -2 1.125 ... 0 0 Z" fill="#A444A7" transform="translate(366,244)"/>
<path d="M0 0 C0.99 0.33 1.98 0.66 3 1 ... 0 0 Z" fill="#12011B" transform="translate(323,253)"/>
<path d="M0 0 C0.33 0.66 0.66 1.32 1 2 ... 0 0 Z" fill="#B755AE" transform="translate(375,238)"/>
<path d="M0 0 C1.1446875 0.2784375 1.1446875 0.2784375 2.3125 0.5625 ... 0 0 Z" fill="#BD3AC7" transform="translate(379,257)"/>
<path d="M0 0 C3.7952131 1.49097658 5.61042731 3.75700849 8 7 ... 0 0 Z" fill="#B75D89" transform="translate(440,222)"/>
</svg>
